<svg xmlns="http://www.w3.org/2000/svg" xmlns:xlink="http://www.w3.org/1999/xlink" version="1.1" x="0px" y="0px" viewBox="0 0 100 100" enable-background="new 0 0 100 100" xml:space="preserve"><g><path d="M88.648,46.596c-7.391-23.42-18.942-34.805-35.313-34.805c-16.477,0-28.361,11.719-35.321,34.83   c-3.804,12.627-7.227,26.886,0.359,36.272c5.084,6.292,17.6,10.049,33.478,10.049c0.001,0,0.001,0,0.002,0   c12.184,0,29.001-2.591,36.302-9.892C97.274,73.932,92.289,58.132,88.648,46.596z M85.327,80.223   c-5.216,5.216-18.669,8.721-33.476,8.72c-14.463,0-26.099-3.281-30.367-8.563c-6.36-7.87-3.149-20.957,0.359-32.605   c6.391-21.223,16.986-31.983,31.491-31.983c14.398,0,24.702,10.47,31.499,32.009C88.995,60.984,92.163,73.386,85.327,80.223z"></path><path d="M13.08,26.958h6.752c0.775,0,1.421-0.575,1.492-1.348c0.065-0.268,0.753-0.956,1.209-1.412   c1.475-1.476,3.705-3.707,3.705-7.428c0-6.51-5.051-9.599-9.818-9.713c-4.693,0.114-9.745,3.203-9.745,9.713   c0,3.721,2.229,5.952,3.705,7.428c0.456,0.456,1.144,1.145,1.207,1.396C11.656,26.367,12.304,26.958,13.08,26.958z M9.674,16.771   c0-4.523,3.424-6.631,6.745-6.714c3.394,0.083,6.818,2.19,6.818,6.714c0,2.479-1.502,3.981-2.827,5.308   c-0.617,0.617-1.213,1.214-1.608,1.88h-4.692c-0.396-0.666-0.991-1.263-1.608-1.88C11.176,20.752,9.674,19.249,9.674,16.771z"></path><path d="M21.594,29.485c0-0.828-0.671-1.5-1.5-1.5h-7.275c-0.829,0-1.5,0.672-1.5,1.5c0,2.955,2.304,5.359,5.137,5.359   C19.289,34.845,21.594,32.44,21.594,29.485z"></path><path d="M72.347,63.95H34.83c-0.648,0-1.256,0.314-1.631,0.843s-0.471,1.206-0.257,1.817c3.068,8.776,11.365,14.673,20.646,14.673   c9.282,0,17.579-5.896,20.647-14.673c0.214-0.611,0.117-1.289-0.258-1.817S72.995,63.95,72.347,63.95z M53.588,77.283   c-6.603,0-12.596-3.653-15.69-9.333h31.382C66.185,73.63,60.191,77.283,53.588,77.283z"></path><circle cx="42.916" cy="44.839" r="8.404"></circle><path d="M37.65,30.679c1.347-1.252,3.266-1.97,5.266-1.97s3.918,0.718,5.266,1.97c0.385,0.357,0.874,0.534,1.361,0.534   c0.537,0,1.071-0.215,1.466-0.639c0.752-0.81,0.705-2.074-0.104-2.826c-2.109-1.96-4.946-3.039-7.988-3.039   s-5.879,1.079-7.988,3.039c-0.809,0.752-0.856,2.017-0.104,2.826S36.841,31.432,37.65,30.679z"></path><circle cx="64.263" cy="44.839" r="8.404"></circle><path d="M58.997,30.679c1.348-1.252,3.267-1.97,5.266-1.97c2,0,3.919,0.718,5.266,1.97c0.386,0.357,0.874,0.534,1.361,0.534   c0.536,0,1.071-0.215,1.466-0.639c0.752-0.81,0.705-2.074-0.104-2.826c-2.109-1.96-4.946-3.039-7.988-3.039   s-5.879,1.079-7.988,3.039c-0.809,0.752-0.855,2.017-0.104,2.826C56.924,31.384,58.188,31.432,58.997,30.679z"></path></g></svg>